<svg width="284" height="194" xmlns="http://www.w3.org/2000/svg" xmlns:xlink="http://www.w3.org/1999/xlink" overflow="hidden"><defs><clipPath id="clip0"><rect x="-675" y="1367" width="284" height="194"/></clipPath><linearGradient x1="-622.319" y1="1332.81" x2="-443.681" y2="1595.19" gradientUnits="userSpaceOnUse" spreadMethod="reflect" id="fill1"><stop offset="0" stop-color="#5A3787"/><stop offset="0.02" stop-color="#5A3787"/><stop offset="0.47" stop-color="#4540A1"/><stop offset="0.8076" stop-color="#2C49B9"/><stop offset="1" stop-color="#1C4EC2"/></linearGradient><linearGradient x1="-622.319" y1="1332.81" x2="-443.681" y2="1595.19" gradientUnits="userSpaceOnUse" spreadMethod="reflect" id="fill2"><stop offset="0" stop-color="#5A3787"/><stop offset="0.02" stop-color="#5A3787"/><stop offset="0.47" stop-color="#4540A1"/><stop offset="0.8076" stop-color="#2C49B9"/><stop offset="1" stop-color="#1C4EC2"/></linearGradient><linearGradient x1="-622.319" y1="1332.81" x2="-443.681" y2="1595.19" gradientUnits="userSpaceOnUse" spreadMethod="reflect" id="fill3"><stop offset="0" stop-color="#5A3787"/><stop offset="0.02" stop-color="#5A3787"/><stop offset="0.47" stop-color="#4540A1"/><stop offset="0.8076" stop-color="#2C49B9"/><stop offset="1" stop-color="#1C4EC2"/></linearGradient><linearGradient x1="-622.319" y1="1332.81" x2="-443.681" y2="1595.19" gradientUnits="userSpaceOnUse" spreadMethod="reflect" id="fill4"><stop offset="0" stop-color="#5A3787"/><stop offset="0.02" stop-color="#5A3787"/><stop offset="0.47" stop-color="#4540A1"/><stop offset="0.8076" stop-color="#2C49B9"/><stop offset="1" stop-color="#1C4EC2"/></linearGradient></defs><g clip-path="url(#clip0)" transform="translate(675 -1367)"><path d="M-607 1369-450.944 1369C-418.39 1369-392 1395.42-392 1428-392 1460.58-418.39 1487-450.944 1487L-517.144 1487-518.5 1481.72C-523.697 1465-535.285 1451.09-550.404 1442.87L-551.169 1442.48-449.898 1442.48C-442.105 1442.48-435.787 1436.16-435.787 1428.36-435.787 1420.56-442.105 1414.23-449.898 1414.23L-557.928 1414.23Z" fill="url(#fill1)" fill-rule="evenodd"/><path d="M-674 1442-583.887 1442C-551.365 1442-525 1468.42-525 1501-525 1533.58-551.365 1560-583.887 1560L-674 1560-674 1515.12-585.67 1515.12C-577.884 1515.12-571.573 1508.8-571.573 1501-571.573 1493.2-577.884 1486.88-585.67 1486.88L-674 1486.88Z" fill="url(#fill2)" fill-rule="evenodd"/><path d="M-674 1368-627 1411.14-627 1453-674 1453Z" fill="url(#fill3)" fill-rule="evenodd"/><path d="M-500.466 1464-396 1560-463.527 1560-515.991 1511.79-515.828 1510.89-515.792 1510.29-515.679 1509.55C-515.435 1507.15-515.31 1504.72-515.31 1502.27-515.31 1500.42-515.38 1498.59-515.518 1496.79L-515.642 1495.7-515.679 1494.98-515.861 1493.79-516.133 1491.42-516.582 1489.08-516.76 1487.91-516.938 1487.22-517.138 1486.18-518 1483Z" fill="url(#fill4)" fill-rule="evenodd"/></g></svg>